<svg width="50" height="40" xmlns="http://www.w3.org/2000/svg" xmlns:xlink="http://www.w3.org/1999/xlink">
 <defs>
  <radialGradient xlink:href="#linearGradient5060" r="117.14286" id="radialGradient6719" gradientUnits="userSpaceOnUse" gradientTransform="matrix(-2.774389,0,0,1.969706,112.7623,-872.8854)" fy="486.64789" fx="605.71429" cy="486.64789" cx="605.71429"/>
  <linearGradient id="linearGradient5060">
   <stop stop-color="black" offset="0" id="stop5062"/>
   <stop stop-color="black" stop-opacity="0" offset="1" id="stop5064"/>
  </linearGradient>
  <radialGradient xlink:href="#linearGradient5060" r="117.14286" id="radialGradient6717" gradientUnits="userSpaceOnUse" gradientTransform="matrix(2.774389,0,0,1.969706,-1891.633,-872.8854)" fy="486.64789" fx="605.71429" cy="486.64789" cx="605.71429"/>
  <linearGradient id="linearGradient5048">
   <stop stop-color="black" stop-opacity="0" offset="0" id="stop5050"/>
   <stop stop-color="black" offset="0.5" id="stop5056"/>
   <stop stop-color="black" stop-opacity="0" offset="1" id="stop5052"/>
  </linearGradient>
  <linearGradient y2="Infinity" y1="-Infinity" xlink:href="#linearGradient5048" x2="-Infinity" x1="-Infinity" id="linearGradient6715"/>
  <linearGradient id="linearGradient2941">
   <stop stop-color="#ffffff" offset="0" id="stop2943"/>
   <stop stop-color="#ffffff" stop-opacity="0" offset="1" id="stop2945"/>
  </linearGradient>
  <linearGradient id="linearGradient2926">
   <stop stop-color="#787878" offset="0" id="stop2928"/>
   <stop stop-color="#d0d0d0" offset="1" id="stop2930"/>
  </linearGradient>
  <linearGradient id="linearGradient2831">
   <stop stop-color="#919191" offset="0" id="stop2833"/>
   <stop stop-color="#e9e9e9" offset="0.20232" id="stop2839"/>
   <stop stop-color="#f3f3f3" offset="0.236415" id="stop2843"/>
   <stop stop-color="#e6e6e6" offset="0.298923" id="stop2841"/>
   <stop stop-color="#f8f8f8" offset="1" id="stop2835"/>
  </linearGradient>
  <linearGradient y2="Infinity" y1="Infinity" xlink:href="#linearGradient2831" x2="Infinity" x1="Infinity" id="linearGradient2837"/>
  <linearGradient y2="Infinity" y1="Infinity" xlink:href="#linearGradient2926" x2="Infinity" x1="Infinity" id="linearGradient2932"/>
  <linearGradient y2="Infinity" y1="Infinity" xlink:href="#linearGradient2941" x2="Infinity" x1="Infinity" id="linearGradient2947"/>
 </defs>
 <g>
  <title>background</title>
  <rect fill="none" id="canvas_background" height="42" width="52" y="-1" x="-1"/>
 </g>
 <g>
  <title>Layer 1</title>
  <rect transform="matrix(0.02374466,0,0,0.02086758,44.68185,33.2786) " opacity="0.402062" fill="url(#linearGradient6715)" fill-rule="nonzero" stroke-linecap="round" stroke-miterlimit="4" stroke-dashoffset="0" y="-317.028491" x="-1517.137568" width="1339.6335" id="rect6709" height="478.35718"/>
  <path opacity="0.402062" fill="url(#radialGradient6717)" fill-rule="nonzero" stroke-linecap="round" marker-start="none" marker-mid="none" marker-end="none" stroke-miterlimit="4" stroke-dashoffset="0" id="path6711" d="m40.467077,26.663326c0,0 0,9.981606 0,9.981606c3.392499,0.01879 8.201411,-2.236371 8.201409,-4.991445c0,-2.755074 -3.785773,-4.99016 -8.201409,-4.990161z"/>
  <path opacity="0.402062" fill="url(#radialGradient6719)" fill-rule="nonzero" stroke-linecap="round" marker-start="none" marker-mid="none" marker-end="none" stroke-miterlimit="4" stroke-dashoffset="0" id="path6713" d="m8.657934,26.663326c0,0 0,9.981606 0,9.981606c-3.392499,0.01879 -8.20141,-2.236371 -8.20141,-4.991445c0,-2.755074 3.785773,-4.99016 8.20141,-4.990161z"/>
  <path fill="url(#linearGradient2837)" fill-rule="evenodd" stroke="#828282" stroke-miterlimit="4" id="path1943" d="m7.63186,8.078551l-4.25263,19.48676c-0.68094,3.12026 0.80746,5.11393 2.96069,5.11393l37.25094,0c2.15323,0 3.6555,-2.33507 2.90686,-5.0601l-5.38308,-19.59442c-0.14827,-0.53969 -0.83666,-0.96994 -1.3996,-0.96895l-30.68357,0.05383c-0.82714,0.00145 -1.23894,0.23275 -1.39961,0.96895z"/>
  <path fill="#000000" fill-opacity="0.175439" fill-rule="evenodd" stroke-width="1px" id="path2850" d="m37.85465,10.261201l-8.31894,0l0.77612,4.57143l8.3846,0l-0.84178,-4.57143z"/>
  <path stroke-opacity="0.099415" stroke-linecap="round" stroke-width="1px" stroke="#000000" fill-rule="evenodd" fill-opacity="0.75" fill="none" id="path2852" d="m39.71429,17.886201l-15,0"/>
  <path fill="none" fill-opacity="0.75" fill-rule="evenodd" stroke="#000000" stroke-width="1px" stroke-linecap="round" stroke-opacity="0.099415" id="path2854" d="m40.21429,19.886201l-15.5,0"/>
  <path stroke-opacity="0.122807" stroke-linecap="round" stroke-width="1px" stroke="#000000" fill-rule="evenodd" fill-opacity="0.75" fill="none" id="path2856" d="m40.83929,21.886201l-16.125,0"/>
  <path stroke-opacity="0.152047" stroke-linecap="round" stroke-width="0.991281px" stroke="#000000" fill-rule="evenodd" fill-opacity="0.75" fill="none" id="path2858" d="m41.41047,23.886201l-16.70487,0"/>
  <path fill="none" fill-opacity="0.75" fill-rule="evenodd" stroke="#000000" stroke-width="0.991575px" stroke-linecap="round" stroke-opacity="0.152047" id="path2860" d="m42.03518,25.886201l-17.32928,0"/>
  <path fill="none" fill-opacity="0.75" fill-rule="evenodd" stroke="#000000" stroke-width="0.991903px" stroke-linecap="round" stroke-opacity="0.152047" id="path2862" d="m42.78485,27.886201l-18.07863,0"/>
  <path stroke-opacity="0.116959" stroke-linecap="round" stroke-width="0.986486px" stroke="#000000" fill-rule="evenodd" fill-opacity="0.75" fill="none" id="path2864" d="m41.85271,29.886201l-17.15185,0"/>
  <text font-size="6.587738" font-style="normal" font-weight="normal" fill="#000000" stroke-width="1px" font-family="Times New Roman" text-anchor="start" y="19.206924" x="13.218751" transform="matrix(1,0,-0.169202,1,0,0) " id="text2866"/>
  <text font-size="6.587738" font-style="normal" font-weight="normal" fill="#000000" stroke-width="1px" font-family="Times New Roman" text-anchor="start" y="19.206924" x="16.930657" transform="matrix(1,0,-0.114632,1,0,0) " id="text2870"/>
  <text font-size="6.587738" font-style="normal" font-weight="normal" fill="#000000" stroke-width="1px" font-family="Times New Roman" text-anchor="start" y="19.206924" x="18.144793" transform="matrix(1,0,0.05603472,1,0,0) " id="text2874"/>
  <text font-size="6.587738" font-style="normal" font-weight="normal" fill="#000000" stroke-width="1px" font-family="Times New Roman" text-anchor="start" y="19.203707" x="23.325037" transform="matrix(1,0,0.109619,1,0,0) " id="text2878"/>
  <path fill="url(#linearGradient2932)" fill-rule="evenodd" stroke="#9e9e9e" stroke-width="1px" id="path2924" d="m22.125,17.904061l0,12l-12.9375,0c-1.13192,0 -2.0625,-1.1875 -1.5,-2.875c0,0 1.9375,-9.125 1.9375,-9.125l12.5,0z"/>
  <path fill="none" fill-opacity="0.75" fill-rule="evenodd" stroke="#ffffff" stroke-width="1px" stroke-linecap="round" stroke-linejoin="round" stroke-opacity="0.309941" id="path2934" d="m21.1875,27.966561l-12.5,0"/>
  <path fill="none" fill-opacity="0.75" fill-rule="evenodd" stroke="#ffffff" stroke-width="2.449541px" stroke-linecap="round" stroke-linejoin="round" stroke-opacity="0.309941" id="path2937" d="m21.1875,27.966411l-12.5,0"/>
  <path fill="none" fill-rule="evenodd" stroke="url(#linearGradient2947)" stroke-width="0.981884px" id="path2939" d="m8.43305,8.819211l-3.98032,18.76504c-0.44137,2.08083 -0.31861,4.0863 1.9776,4.0863l36.69311,0c2.23371,0 2.95578,-1.84646 2.178,-4.66171l-5.02176,-18.17672c-0.13731,-0.497 -0.45829,-0.83103 -0.97691,-0.83017l-29.83031,0.04959c-0.63701,0.00106 -0.92612,0.23357 -1.03941,0.76767z"/>
  <path marker-end="none" marker-mid="none" marker-start="none" stroke-dashoffset="0" stroke-miterlimit="4" stroke-linejoin="round" stroke-linecap="round" fill-rule="nonzero" fill-opacity="0.637427" fill="#ffffff" id="path2963" d="m7.0625,28.091561a0.96875,0.96875 0 1 1 -1.9375,0a0.96875,0.96875 0 1 1 1.9375,0z"/>
 </g>
</svg>